<?xml version="1.0" standalone="no"?>
<!DOCTYPE svg PUBLIC "-//W3C//DTD SVG 20010904//EN"
 "http://www.w3.org/TR/2001/REC-SVG-20010904/DTD/svg10.dtd">
<svg version="1.0" xmlns="http://www.w3.org/2000/svg"
 width="640.000000pt" height="640.000000pt" viewBox="0 0 640.000000 640.000000"
 preserveAspectRatio="xMidYMid meet">

<g transform="translate(0.000000,640.000000) scale(0.100000,-0.100000)"
fill="#000000" stroke="none">
<path d="M0 3200 l0 -3200 3200 0 3200 0 0 3200 0 3200 -3200 0 -3200 0 0
-3200z m3005 746 c82 -26 205 -92 205 -110 0 -5 -26 -43 -57 -84 -32 -41 -61
-80 -65 -85 -4 -6 -25 2 -55 20 -74 47 -138 66 -228 67 -68 1 -88 -3 -136 -27
-191 -93 -266 -373 -158 -593 98 -198 328 -253 521 -124 l58 38 70 -76 c38
-42 70 -80 70 -84 0 -12 -90 -77 -144 -103 -277 -135 -623 -51 -785 190 -169
252 -138 629 68 834 75 75 179 133 283 156 95 22 253 14 353 -19z m1050 5 c44
-11 113 -33 153 -49 l73 -28 -61 -93 c-48 -73 -64 -91 -78 -86 -160 63 -300
87 -380 66 -98 -27 -147 -117 -103 -188 27 -44 78 -67 229 -107 215 -58 294
-95 356 -168 45 -52 66 -120 66 -215 0 -208 -151 -339 -415 -359 -154 -12
-366 34 -494 107 -60 35 -61 31 33 134 l64 69 78 -36 c121 -55 151 -63 259
-63 88 0 105 3 145 25 105 58 100 174 -10 230 -20 10 -104 37 -185 60 -230 63
-322 117 -376 222 -34 65 -38 185 -9 260 43 115 152 199 300 233 84 19 247 13
355 -14z m1060 15 c63 -15 132 -43 176 -72 26 -17 28 -17 76 14 66 43 119 60
208 68 l76 7 -3 -99 -3 -99 -97 -5 c-53 -3 -102 -10 -108 -16 -9 -9 -6 -22 9
-51 34 -67 47 -163 33 -244 -35 -203 -190 -337 -429 -370 -63 -9 -94 -7 -175
7 -93 16 -99 16 -117 0 -28 -25 -35 -64 -17 -91 24 -37 98 -54 301 -70 304
-25 418 -57 495 -141 53 -57 72 -106 73 -184 2 -189 -145 -304 -437 -340 -115
-15 -317 -8 -416 14 -139 31 -254 90 -297 154 -78 117 -39 281 86 363 l50 32
-29 36 c-67 85 -59 181 22 267 l48 51 -49 50 c-26 27 -61 76 -77 109 -27 55
-29 67 -29 179 0 116 1 123 33 187 37 76 116 154 195 194 115 59 279 79 402
50z"/>
<path d="M4910 3781 c-157 -48 -224 -224 -142 -375 34 -62 88 -102 159 -116
120 -25 236 30 284 135 28 60 25 166 -5 230 -28 60 -56 87 -116 114 -46 21
-131 27 -180 12z"/>
<path d="M4760 2744 c-41 -18 -83 -85 -84 -137 -2 -87 59 -129 214 -148 136
-16 334 2 402 37 74 38 92 112 40 164 -37 36 -82 49 -217 61 -60 5 -158 15
-218 22 -85 10 -114 10 -137 1z"/>
</g>
</svg>
