<?xml version="1.0" encoding="UTF-8"?>
<!DOCTYPE svg PUBLIC "-//W3C//DTD SVG 1.1//EN" "http://www.w3.org/Graphics/SVG/1.1/DTD/svg11.dtd">
<svg xmlns="http://www.w3.org/2000/svg" version="1.1" width="932px" height="430px" style="shape-rendering:geometricPrecision; text-rendering:geometricPrecision; image-rendering:optimizeQuality; fill-rule:evenodd; clip-rule:evenodd" xmlns:xlink="http://www.w3.org/1999/xlink">
<g><path style="opacity:1" fill="#f2f2f2" d="M -0.5,-0.5 C 310.167,-0.5 620.833,-0.5 931.5,-0.5C 931.5,142.833 931.5,286.167 931.5,429.5C 620.833,429.5 310.167,429.5 -0.5,429.5C -0.5,286.167 -0.5,142.833 -0.5,-0.5 Z"/></g>
<g><path style="opacity:1" fill="#adbcdb" d="M 146.5,159.5 C 150.162,159.723 153.495,160.723 156.5,162.5C 152.838,162.277 149.505,161.277 146.5,159.5 Z"/></g>
<g><path style="opacity:1" fill="#a6b6d9" d="M 127.5,159.5 C 126.5,160.167 125.5,160.833 124.5,161.5C 121.402,161.756 118.402,162.422 115.5,163.5C 116.058,162.21 117.058,161.377 118.5,161C 121.478,160.304 124.478,159.804 127.5,159.5 Z"/></g>
<g><path style="opacity:1" fill="#7b95cb" d="M 142.5,159.5 C 136.357,159.27 130.357,159.936 124.5,161.5C 125.5,160.833 126.5,160.167 127.5,159.5C 132.6,158.2 137.6,158.2 142.5,159.5 Z"/></g>
<g><path style="opacity:1" fill="#5f7ec0" d="M 142.5,159.5 C 143.833,159.5 145.167,159.5 146.5,159.5C 149.505,161.277 152.838,162.277 156.5,162.5C 161.447,165.319 166.113,168.652 170.5,172.5C 171.08,174.749 172.413,176.415 174.5,177.5C 177.717,180 179.717,183.333 180.5,187.5C 181.06,189.801 181.56,192.134 182,194.5C 182.383,195.056 182.883,195.389 183.5,195.5C 183.328,196.492 183.662,197.158 184.5,197.5C 184.683,204.868 184.35,212.201 183.5,219.5C 182.962,221.117 182.629,222.784 182.5,224.5C 180.21,227.606 178.21,230.939 176.5,234.5C 174.147,236.86 172.147,239.527 170.5,242.5C 168.205,243.136 166.539,244.469 165.5,246.5C 164.508,246.328 163.842,246.662 163.5,247.5C 161.973,247.427 160.973,248.094 160.5,249.5C 159.609,250.11 158.609,250.443 157.5,250.5C 154.167,251.5 150.833,252.5 147.5,253.5C 139.833,253.5 132.167,253.5 124.5,253.5C 123.833,253.5 123.167,253.5 122.5,253.5C 116.107,251.804 110.44,248.804 105.5,244.5C 103.833,242.167 101.833,240.167 99.5,238.5C 97.7451,235.32 95.7451,232.32 93.5,229.5C 93.3404,227.847 92.6737,226.514 91.5,225.5C 91.3259,223.139 90.9926,220.806 90.5,218.5C 88.9359,209.74 89.2692,201.074 91.5,192.5C 91.8333,191.167 92.1667,189.833 92.5,188.5C 92.5,188.167 92.5,187.833 92.5,187.5C 94.9305,185.954 96.2639,183.621 96.5,180.5C 96.5,179.833 96.8333,179.5 97.5,179.5C 98.9744,178.564 99.9744,177.23 100.5,175.5C 100.5,174.833 100.833,174.5 101.5,174.5C 102.833,173.833 103.833,172.833 104.5,171.5C 107.81,169.518 110.81,167.185 113.5,164.5C 113.842,163.662 114.508,163.328 115.5,163.5C 118.402,162.422 121.402,161.756 124.5,161.5C 130.357,159.936 136.357,159.27 142.5,159.5 Z"/></g>
<g><path style="opacity:1" fill="#a4b4d8" d="M 113.5,164.5 C 110.81,167.185 107.81,169.518 104.5,171.5C 104.414,170.504 104.748,169.671 105.5,169C 107.817,166.843 110.484,165.343 113.5,164.5 Z"/></g>
<g><path style="opacity:1" fill="#96a9d3" d="M 104.5,171.5 C 103.833,172.833 102.833,173.833 101.5,174.5C 101.5,172.5 102.5,171.5 104.5,171.5 Z"/></g>
<g><path style="opacity:1" fill="#c0cbe1" d="M 256.5,173.5 C 260.311,172.355 264.311,172.188 268.5,173C 269.252,173.671 269.586,174.504 269.5,175.5C 265.473,173.642 261.14,172.975 256.5,173.5 Z"/></g>
<g><path style="opacity:1" fill="#bfcae1" d="M 524.5,173.5 C 540.661,172.338 556.995,172.172 573.5,173C 574.252,173.671 574.586,174.504 574.5,175.5C 573.711,175.217 573.044,174.717 572.5,174C 556.503,173.5 540.503,173.333 524.5,173.5 Z"/></g>
<g><path style="opacity:1" fill="#96aad4" d="M 719.5,173.5 C 712.776,173.244 706.109,173.577 699.5,174.5C 699.5,174.167 699.5,173.833 699.5,173.5C 706.266,172.191 712.932,172.191 719.5,173.5 Z"/></g>
<g><path style="opacity:1" fill="#bec9e0" d="M 813.5,173.5 C 797.83,173.333 782.163,173.5 766.5,174C 765.956,174.717 765.289,175.217 764.5,175.5C 764.414,174.504 764.748,173.671 765.5,173C 781.672,172.172 797.672,172.339 813.5,173.5 Z"/></g>
<g><path style="opacity:1" fill="#91a5d2" d="M 170.5,172.5 C 172.587,173.585 173.92,175.251 174.5,177.5C 172.413,176.415 171.08,174.749 170.5,172.5 Z"/></g>
<g><path style="opacity:1" fill="#8da2cf" d="M 297.5,174.5 C 297.5,174.167 297.5,173.833 297.5,173.5C 313.503,173.333 329.503,173.5 345.5,174C 346.456,177.394 346.789,180.894 346.5,184.5C 346.167,184.5 345.833,184.5 345.5,184.5C 345.81,181.287 345.477,178.287 344.5,175.5C 329.009,174.504 313.342,174.17 297.5,174.5 Z"/></g>
<g><path style="opacity:1" fill="#90a5d1" d="M 599.5,174.5 C 599.5,174.167 599.5,173.833 599.5,173.5C 603.514,173.334 607.514,173.501 611.5,174C 612.252,174.671 612.586,175.504 612.5,176.5C 608.473,174.642 604.14,173.975 599.5,174.5 Z"/></g>
<g><path style="opacity:1" fill="#7892c9" d="M 524.5,173.5 C 540.503,173.333 556.503,173.5 572.5,174C 573.044,174.717 573.711,175.217 574.5,175.5C 574.665,178.518 574.498,181.518 574,184.5C 573.617,185.056 573.117,185.389 572.5,185.5C 560.833,185.5 549.167,185.5 537.5,185.5C 548.988,184.505 560.655,184.172 572.5,184.5C 572.5,181.5 572.5,178.5 572.5,175.5C 556.5,175.5 540.5,175.5 524.5,175.5C 524.5,174.833 524.5,174.167 524.5,173.5 Z"/></g>
<g><path style="opacity:1" fill="#c5cfe3" d="M 699.5,173.5 C 699.5,173.833 699.5,174.167 699.5,174.5C 697.297,174.604 695.297,175.27 693.5,176.5C 694.607,174.031 696.607,173.031 699.5,173.5 Z"/></g>
<g><path style="opacity:1" fill="#6280c1" d="M 719.5,173.5 C 723.495,174.001 727.162,175.334 730.5,177.5C 730.973,178.906 731.973,179.573 733.5,179.5C 733.427,181.027 734.094,182.027 735.5,182.5C 737.643,184.131 739.31,186.131 740.5,188.5C 740.5,189.833 740.5,191.167 740.5,192.5C 740.5,194.167 740.5,195.833 740.5,197.5C 736.167,197.5 731.833,197.5 727.5,197.5C 727.167,197.5 726.833,197.5 726.5,197.5C 726.721,193.132 725.054,189.798 721.5,187.5C 720.158,186.207 718.491,185.374 716.5,185C 711.411,184.174 706.411,184.508 701.5,186C 699.859,187.129 698.859,188.629 698.5,190.5C 697.662,190.842 697.328,191.508 697.5,192.5C 695.955,193.23 695.122,194.563 695,196.5C 694.176,205.343 694.343,214.01 695.5,222.5C 695.338,224.527 695.505,226.527 696,228.5C 696.383,229.056 696.883,229.389 697.5,229.5C 699.596,232.262 702.262,234.262 705.5,235.5C 712.45,237.824 718.617,236.49 724,231.5C 724.791,230.255 725.291,228.922 725.5,227.5C 725.84,225.321 726.84,223.488 728.5,222C 732.486,221.501 736.486,221.334 740.5,221.5C 741.634,223.966 741.801,226.633 741,229.5C 739.768,232.412 738.268,235.078 736.5,237.5C 734.023,240.315 731.023,242.315 727.5,243.5C 716.247,246.159 704.914,246.159 693.5,243.5C 687.085,240.015 683.085,234.681 681.5,227.5C 680.211,215.814 680.211,204.147 681.5,192.5C 681.5,192.167 681.5,191.833 681.5,191.5C 683.771,189.388 685.104,186.721 685.5,183.5C 689.022,182.151 691.689,179.818 693.5,176.5C 695.297,175.27 697.297,174.604 699.5,174.5C 706.109,173.577 712.776,173.244 719.5,173.5 Z"/></g>
<g><path style="opacity:1" fill="#9fb2d8" d="M 297.5,173.5 C 297.5,173.833 297.5,174.167 297.5,174.5C 296.502,197.994 296.169,221.661 296.5,245.5C 295.833,233.671 295.5,221.671 295.5,209.5C 295.501,197.148 296.168,185.148 297.5,173.5 Z"/></g>
<g><path style="opacity:1" fill="#6180c1" d="M 382.5,174.5 C 383.497,194.326 383.83,214.326 383.5,234.5C 395.167,234.5 406.833,234.5 418.5,234.5C 418.5,238.167 418.5,241.833 418.5,245.5C 402.5,245.5 386.5,245.5 370.5,245.5C 370.5,221.833 370.5,198.167 370.5,174.5C 374.5,174.5 378.5,174.5 382.5,174.5 Z"/></g>
<g><path style="opacity:1" fill="#afbede" d="M 382.5,174.5 C 382.5,174.167 382.5,173.833 382.5,173.5C 384.488,193.139 385.155,213.139 384.5,233.5C 396.171,233.333 407.838,233.5 419.5,234C 420.131,235.906 420.464,237.906 420.5,240C 420.453,242.295 419.787,244.129 418.5,245.5C 418.5,241.833 418.5,238.167 418.5,234.5C 406.833,234.5 395.167,234.5 383.5,234.5C 383.83,214.326 383.497,194.326 382.5,174.5 Z"/></g>
<g><path style="opacity:1" fill="#c4cee3" d="M 438.5,174.5 C 438.5,191.833 438.5,209.167 438.5,226.5C 437.732,225.737 437.232,224.737 437,223.5C 436.833,215.333 436.667,207.167 436.5,199C 436.502,190.472 437.169,182.305 438.5,174.5 Z"/></g>
<g><path style="opacity:1" fill="#c3cde2" d="M 496.5,174.5 C 497.117,174.611 497.617,174.944 498,175.5C 498.667,191.5 498.667,207.5 498,223.5C 497.79,225.058 497.29,226.391 496.5,227.5C 496.5,209.833 496.5,192.167 496.5,174.5 Z"/></g>
<g><path style="opacity:1" fill="#b7c4de" d="M 524.5,173.5 C 524.5,174.167 524.5,174.833 524.5,175.5C 523.502,198.661 523.169,221.994 523.5,245.5C 522.337,222.004 522.17,198.337 523,174.5C 523.383,173.944 523.883,173.611 524.5,173.5 Z"/></g>
<g><path style="opacity:1" fill="#6280c1" d="M 599.5,174.5 C 604.14,173.975 608.473,174.642 612.5,176.5C 615.458,180.158 618.124,184.158 620.5,188.5C 620.427,190.027 621.094,191.027 622.5,191.5C 626.331,196.489 629.664,201.822 632.5,207.5C 632.908,211.573 634.908,214.573 638.5,216.5C 639.401,217.29 640.068,218.29 640.5,219.5C 640.56,220.043 640.893,220.376 641.5,220.5C 642.333,205.511 642.833,190.511 643,175.5C 646.73,174.54 650.563,174.207 654.5,174.5C 654.5,198.167 654.5,221.833 654.5,245.5C 650.434,245.693 646.434,245.36 642.5,244.5C 640.71,242.728 639.377,240.728 638.5,238.5C 631.833,228.5 625.167,218.5 618.5,208.5C 618.262,206.596 617.262,205.262 615.5,204.5C 615.443,203.391 615.11,202.391 614.5,201.5C 614.179,199.952 613.179,199.285 611.5,199.5C 611.5,214.833 611.5,230.167 611.5,245.5C 608.038,246.482 604.371,246.815 600.5,246.5C 599.833,246.167 599.167,245.833 598.5,245.5C 598.169,221.661 598.502,197.994 599.5,174.5 Z"/></g>
<g><path style="opacity:1" fill="#7d96cb" d="M 225.5,176.5 C 221.6,175.57 217.6,175.237 213.5,175.5C 213.5,198.833 213.5,222.167 213.5,245.5C 217.167,245.5 220.833,245.5 224.5,245.5C 224.5,245.833 224.5,246.167 224.5,246.5C 220.233,246.797 216.066,246.464 212,245.5C 211.333,221.833 211.333,198.167 212,174.5C 216.079,173.371 220.245,173.204 224.5,174C 225.252,174.671 225.586,175.504 225.5,176.5 Z"/></g>
<g><path style="opacity:1" fill="#6280c1" d="M 256.5,173.5 C 261.14,172.975 265.473,173.642 269.5,175.5C 269.667,198.836 269.5,222.169 269,245.5C 264.934,246.464 260.767,246.797 256.5,246.5C 256.262,244.596 255.262,243.262 253.5,242.5C 245.328,228.817 236.662,215.484 227.5,202.5C 227.631,201.624 227.298,200.957 226.5,200.5C 225.833,215.661 225.167,230.661 224.5,245.5C 220.833,245.5 217.167,245.5 213.5,245.5C 213.5,222.167 213.5,198.833 213.5,175.5C 217.6,175.237 221.6,175.57 225.5,176.5C 227.262,177.262 228.262,178.596 228.5,180.5C 228.738,182.404 229.738,183.738 231.5,184.5C 232.345,185.671 233.011,187.005 233.5,188.5C 234.411,192.25 236.411,195.25 239.5,197.5C 243.331,202.489 246.664,207.822 249.5,213.5C 249.738,215.404 250.738,216.738 252.5,217.5C 252.5,218.833 252.5,220.167 252.5,221.5C 253.833,221.5 255.167,221.5 256.5,221.5C 256.5,206.167 256.5,190.833 256.5,175.5C 256.5,174.833 256.5,174.167 256.5,173.5 Z"/></g>
<g><path style="opacity:1" fill="#b2c0dc" d="M 256.5,173.5 C 256.5,174.167 256.5,174.833 256.5,175.5C 255.833,190.339 255.167,205.339 254.5,220.5C 253.893,220.376 253.56,220.043 253.5,219.5C 254.331,204.672 254.831,189.672 255,174.5C 255.383,173.944 255.883,173.611 256.5,173.5 Z"/></g>
<g><path style="opacity:1" fill="#7a94c9" d="M 256.5,175.5 C 256.5,190.833 256.5,206.167 256.5,221.5C 255.167,221.5 253.833,221.5 252.5,221.5C 252.5,220.167 252.5,218.833 252.5,217.5C 253.338,217.842 253.672,218.508 253.5,219.5C 253.56,220.043 253.893,220.376 254.5,220.5C 255.167,205.339 255.833,190.339 256.5,175.5 Z"/></g>
<g><path style="opacity:1" fill="#5f7ec0" d="M 344.5,175.5 C 345.477,178.287 345.81,181.287 345.5,184.5C 345.5,185.167 345.167,185.5 344.5,185.5C 332.833,185.5 321.167,185.5 309.5,185.5C 309.176,192.354 309.509,199.021 310.5,205.5C 320.992,206.33 331.659,206.83 342.5,207C 343.456,210.394 343.789,213.894 343.5,217.5C 331.988,217.172 320.654,217.505 309.5,218.5C 308.507,227.318 308.173,236.318 308.5,245.5C 304.833,245.5 301.167,245.5 297.5,245.5C 297.5,222.167 297.5,198.833 297.5,175.5C 313.167,175.5 328.833,175.5 344.5,175.5 Z"/></g>
<g><path style="opacity:1" fill="#6481c1" d="M 479.5,230.5 C 481.834,228.824 482.834,226.491 482.5,223.5C 482.333,207.163 482.5,190.83 483,174.5C 487.6,173.177 492.1,173.177 496.5,174.5C 496.5,192.167 496.5,209.833 496.5,227.5C 495.766,228.708 495.433,230.041 495.5,231.5C 493.554,235.605 490.888,239.272 487.5,242.5C 485.326,242.75 483.659,243.75 482.5,245.5C 481.391,245.557 480.391,245.89 479.5,246.5C 471.833,247.833 464.167,247.833 456.5,246.5C 446.6,243.271 440.6,236.604 438.5,226.5C 438.5,209.167 438.5,191.833 438.5,174.5C 442.9,173.177 447.4,173.177 452,174.5C 452.333,190.833 452.667,207.167 453,223.5C 454.538,231.54 459.371,235.207 467.5,234.5C 469.833,234.333 472.167,234.167 474.5,234C 476.047,232.613 477.713,231.447 479.5,230.5 Z"/></g>
<g><path style="opacity:1" fill="#6280c1" d="M 524.5,175.5 C 540.5,175.5 556.5,175.5 572.5,175.5C 572.5,178.5 572.5,181.5 572.5,184.5C 560.655,184.172 548.988,184.505 537.5,185.5C 537.5,191.833 537.5,198.167 537.5,204.5C 548.5,204.5 559.5,204.5 570.5,204.5C 571.833,208.167 571.833,211.833 570.5,215.5C 559.5,215.5 548.5,215.5 537.5,215.5C 537.5,221.833 537.5,228.167 537.5,234.5C 549.5,235.167 561.5,235.833 573.5,236.5C 573.5,239.5 573.5,242.5 573.5,245.5C 557.167,245.5 540.833,245.5 524.5,245.5C 524.167,245.5 523.833,245.5 523.5,245.5C 523.169,221.994 523.502,198.661 524.5,175.5 Z"/></g>
<g><path style="opacity:1" fill="#a6b6da" d="M 654.5,174.5 C 650.563,174.207 646.73,174.54 643,175.5C 642.833,190.511 642.333,205.511 641.5,220.5C 640.893,220.376 640.56,220.043 640.5,219.5C 641.331,204.672 641.831,189.672 642,174.5C 643.996,172.941 646.329,172.274 649,172.5C 651.295,172.547 653.129,173.213 654.5,174.5 Z"/></g>
<g><path style="opacity:1" fill="#6281c1" d="M 813.5,173.5 C 814.117,173.611 814.617,173.944 815,174.5C 815.808,178.027 815.641,181.36 814.5,184.5C 802.495,184.333 790.495,184.5 778.5,185C 777.174,191.266 777.174,197.432 778.5,203.5C 778.5,204.167 778.833,204.5 779.5,204.5C 789.987,205.494 800.654,205.828 811.5,205.5C 811.5,208.5 811.5,211.5 811.5,214.5C 800.495,214.333 789.495,214.5 778.5,215C 777.174,221.599 777.174,228.099 778.5,234.5C 790.326,235.331 802.326,235.831 814.5,236C 815.451,239.057 815.784,242.223 815.5,245.5C 815.5,246.167 815.167,246.5 814.5,246.5C 797.756,246.818 781.089,246.485 764.5,245.5C 764.5,222.167 764.5,198.833 764.5,175.5C 765.289,175.217 765.956,174.717 766.5,174C 782.163,173.5 797.83,173.333 813.5,173.5 Z"/></g>
<g><path style="opacity:1" fill="#6a87c5" d="M 297.5,174.5 C 313.342,174.17 329.009,174.504 344.5,175.5C 328.833,175.5 313.167,175.5 297.5,175.5C 297.5,198.833 297.5,222.167 297.5,245.5C 301.167,245.5 304.833,245.5 308.5,245.5C 308.173,236.318 308.507,227.318 309.5,218.5C 309.5,227.5 309.5,236.5 309.5,245.5C 305.167,246.833 300.833,246.833 296.5,245.5C 296.169,221.661 296.502,197.994 297.5,174.5 Z"/></g>
<g><path style="opacity:1" fill="#b8c5df" d="M 730.5,177.5 C 732.027,177.427 733.027,178.094 733.5,179.5C 731.973,179.573 730.973,178.906 730.5,177.5 Z"/></g>
<g><path style="opacity:1" fill="#93a8d2" d="M 100.5,175.5 C 99.9744,177.23 98.9744,178.564 97.5,179.5C 97.5544,177.368 98.5544,176.035 100.5,175.5 Z"/></g>
<g><path style="opacity:1" fill="#839bcd" d="M 382.5,173.5 C 382.5,173.833 382.5,174.167 382.5,174.5C 378.5,174.5 374.5,174.5 370.5,174.5C 370.5,198.167 370.5,221.833 370.5,245.5C 386.5,245.5 402.5,245.5 418.5,245.5C 402.098,246.831 385.598,246.831 369,245.5C 368.333,221.833 368.333,198.167 369,174.5C 373.401,173.533 377.901,173.2 382.5,173.5 Z"/></g>
<g><path style="opacity:1" fill="#d1d8e8" d="M 599.5,173.5 C 599.5,173.833 599.5,174.167 599.5,174.5C 598.502,197.994 598.169,221.661 598.5,245.5C 597.833,233.671 597.5,221.671 597.5,209.5C 597.501,197.148 598.168,185.148 599.5,173.5 Z"/></g>
<g><path style="opacity:1" fill="#7e96cc" d="M 654.5,174.5 C 655.117,174.611 655.617,174.944 656,175.5C 656.667,198.833 656.667,222.167 656,245.5C 651.501,246.806 647.001,246.806 642.5,245.5C 642.5,245.167 642.5,244.833 642.5,244.5C 646.434,245.36 650.434,245.693 654.5,245.5C 654.5,221.833 654.5,198.167 654.5,174.5 Z"/></g>
<g><path style="opacity:1" fill="#7f97cb" d="M 693.5,176.5 C 691.689,179.818 689.022,182.151 685.5,183.5C 687.543,180.457 690.21,178.124 693.5,176.5 Z"/></g>
<g><path style="opacity:1" fill="#96aad3" d="M 733.5,179.5 C 734.906,179.973 735.573,180.973 735.5,182.5C 734.094,182.027 733.427,181.027 733.5,179.5 Z"/></g>
<g><path style="opacity:1" fill="#9eb0d5" d="M 228.5,180.5 C 230.262,181.262 231.262,182.596 231.5,184.5C 229.738,183.738 228.738,182.404 228.5,180.5 Z"/></g>
<g><path style="opacity:1" fill="#bcc8e0" d="M 721.5,187.5 C 716.301,185.867 710.967,185.367 705.5,186C 702.767,186.904 700.433,188.404 698.5,190.5C 698.859,188.629 699.859,187.129 701.5,186C 706.411,184.508 711.411,184.174 716.5,185C 718.491,185.374 720.158,186.207 721.5,187.5 Z"/></g>
<g><path style="opacity:1" fill="#849cce" d="M 814.5,184.5 C 802.833,185.167 791.167,185.833 779.5,186.5C 778.511,191.975 778.178,197.642 778.5,203.5C 777.174,197.432 777.174,191.266 778.5,185C 790.495,184.5 802.495,184.333 814.5,184.5 Z"/></g>
<g><path style="opacity:1" fill="#99add5" d="M 344.5,185.5 C 333.346,186.495 322.012,186.828 310.5,186.5C 310.5,192.833 310.5,199.167 310.5,205.5C 309.509,199.021 309.176,192.354 309.5,185.5C 321.167,185.5 332.833,185.5 344.5,185.5 Z"/></g>
<g><path style="opacity:1" fill="#8a9fcf" d="M 96.5,180.5 C 96.2639,183.621 94.9305,185.954 92.5,187.5C 93.0787,184.669 94.412,182.336 96.5,180.5 Z"/></g>
<g><path style="opacity:1" fill="#dadfea" d="M 345.5,184.5 C 345.833,184.5 346.167,184.5 346.5,184.5C 346.5,185.5 346.5,186.5 346.5,187.5C 334.833,187.5 323.167,187.5 311.5,187.5C 311.211,193.591 311.545,199.591 312.5,205.5C 311.833,205.5 311.167,205.5 310.5,205.5C 310.5,199.167 310.5,192.833 310.5,186.5C 322.012,186.828 333.346,186.495 344.5,185.5C 345.167,185.5 345.5,185.167 345.5,184.5 Z"/></g>
<g><path style="opacity:1" fill="#96a9d4" d="M 685.5,183.5 C 685.104,186.721 683.771,189.388 681.5,191.5C 681.896,188.279 683.229,185.612 685.5,183.5 Z"/></g>
<g><path style="opacity:1" fill="#9caed5" d="M 620.5,188.5 C 621.906,188.973 622.573,189.973 622.5,191.5C 621.094,191.027 620.427,190.027 620.5,188.5 Z"/></g>
<g><path style="opacity:1" fill="#adbcdb" d="M 92.5,188.5 C 92.1667,189.833 91.8333,191.167 91.5,192.5C 90.8333,193.5 90.1667,194.5 89.5,195.5C 89.179,192.423 90.179,190.09 92.5,188.5 Z"/></g>
<g><path style="opacity:1" fill="#889ecf" d="M 180.5,187.5 C 181.117,187.611 181.617,187.944 182,188.5C 182.44,190.866 182.94,193.199 183.5,195.5C 182.883,195.389 182.383,195.056 182,194.5C 181.56,192.134 181.06,189.801 180.5,187.5 Z"/></g>
<g><path style="opacity:1" fill="#869ccd" d="M 233.5,188.5 C 235.86,191.218 237.86,194.218 239.5,197.5C 236.411,195.25 234.411,192.25 233.5,188.5 Z"/></g>
<g><path style="opacity:1" fill="#c0cae2" d="M 721.5,187.5 C 725.054,189.798 726.721,193.132 726.5,197.5C 725.073,194.123 723.406,190.79 721.5,187.5 Z"/></g>
<g><path style="opacity:1" fill="#7f98cd" d="M 740.5,192.5 C 741.461,194.265 741.795,196.265 741.5,198.5C 736.833,198.5 732.167,198.5 727.5,198.5C 727.5,198.167 727.5,197.833 727.5,197.5C 731.833,197.5 736.167,197.5 740.5,197.5C 740.5,195.833 740.5,194.167 740.5,192.5 Z"/></g>
<g><path style="opacity:1" fill="#b7c4e0" d="M 740.5,188.5 C 742.217,191.845 742.884,195.511 742.5,199.5C 737.305,199.821 732.305,199.487 727.5,198.5C 732.167,198.5 736.833,198.5 741.5,198.5C 741.795,196.265 741.461,194.265 740.5,192.5C 740.5,191.167 740.5,189.833 740.5,188.5 Z"/></g>
<g><path style="opacity:1" fill="#c7d0e4" d="M 537.5,185.5 C 549.167,185.5 560.833,185.5 572.5,185.5C 561.346,186.495 550.012,186.828 538.5,186.5C 538.5,191.833 538.5,197.167 538.5,202.5C 549.552,201.857 560.219,202.524 570.5,204.5C 559.5,204.5 548.5,204.5 537.5,204.5C 537.5,198.167 537.5,191.833 537.5,185.5 Z"/></g>
<g><path style="opacity:1" fill="#7e96cc" d="M 614.5,201.5 C 612.839,215.972 611.839,230.638 611.5,245.5C 611.5,230.167 611.5,214.833 611.5,199.5C 613.179,199.285 614.179,199.952 614.5,201.5 Z"/></g>
<g><path style="opacity:1" fill="#bec9e1" d="M 697.5,192.5 C 696.55,202.448 696.216,212.448 696.5,222.5C 696.167,222.5 695.833,222.5 695.5,222.5C 694.343,214.01 694.176,205.343 695,196.5C 695.122,194.563 695.955,193.23 697.5,192.5 Z"/></g>
<g><path style="opacity:1" fill="#abbadb" d="M 779.5,186.5 C 779.5,192.167 779.5,197.833 779.5,203.5C 790.346,203.172 801.013,203.506 811.5,204.5C 800.833,204.5 790.167,204.5 779.5,204.5C 778.833,204.5 778.5,204.167 778.5,203.5C 778.178,197.642 778.511,191.975 779.5,186.5 Z"/></g>
<g><path style="opacity:1" fill="#bcc8e0" d="M 227.5,202.5 C 227.161,217.362 226.161,232.028 224.5,246.5C 224.5,246.167 224.5,245.833 224.5,245.5C 225.167,230.661 225.833,215.661 226.5,200.5C 227.298,200.957 227.631,201.624 227.5,202.5 Z"/></g>
<g><path style="opacity:1" fill="#7590c8" d="M 779.5,204.5 C 790.167,204.5 800.833,204.5 811.5,204.5C 812.117,204.611 812.617,204.944 813,205.5C 813.805,208.696 813.638,211.696 812.5,214.5C 812.167,214.5 811.833,214.5 811.5,214.5C 811.5,211.5 811.5,208.5 811.5,205.5C 800.654,205.828 789.987,205.494 779.5,204.5 Z"/></g>
<g><path style="opacity:1" fill="#98abd5" d="M 310.5,205.5 C 311.167,205.5 311.833,205.5 312.5,205.5C 322.839,205.334 333.172,205.5 343.5,206C 344.821,209.934 344.821,213.767 343.5,217.5C 343.789,213.894 343.456,210.394 342.5,207C 331.659,206.83 320.992,206.33 310.5,205.5 Z"/></g>
<g><path style="opacity:1" fill="#c7d1e4" d="M 614.5,201.5 C 615.11,202.391 615.443,203.391 615.5,204.5C 614.883,204.389 614.383,204.056 614,203.5C 613.667,217.833 613.333,232.167 613,246.5C 608.733,247.822 604.566,247.822 600.5,246.5C 604.371,246.815 608.038,246.482 611.5,245.5C 611.839,230.638 612.839,215.972 614.5,201.5 Z"/></g>
<g><path style="opacity:1" fill="#b3c1dd" d="M 615.5,204.5 C 617.262,205.262 618.262,206.596 618.5,208.5C 616.738,207.738 615.738,206.404 615.5,204.5 Z"/></g>
<g><path style="opacity:1" fill="#b9c5df" d="M 681.5,192.5 C 680.211,204.147 680.211,215.814 681.5,227.5C 680.778,227.082 680.278,226.416 680,225.5C 679.333,214.833 679.333,204.167 680,193.5C 680.383,192.944 680.883,192.611 681.5,192.5 Z"/></g>
<g><path style="opacity:1" fill="#7892c9" d="M 91.5,192.5 C 89.2692,201.074 88.9359,209.74 90.5,218.5C 90.1667,218.5 89.8333,218.5 89.5,218.5C 88.2427,210.813 88.2427,203.147 89.5,195.5C 90.1667,194.5 90.8333,193.5 91.5,192.5 Z"/></g>
<g><path style="opacity:1" fill="#849bcd" d="M 632.5,207.5 C 634.86,210.218 636.86,213.218 638.5,216.5C 634.908,214.573 632.908,211.573 632.5,207.5 Z"/></g>
<g><path style="opacity:1" fill="#becae1" d="M 184.5,197.5 C 185.653,203.653 185.82,209.986 185,216.5C 184.768,217.737 184.268,218.737 183.5,219.5C 184.35,212.201 184.683,204.868 184.5,197.5 Z"/></g>
<g><path style="opacity:1" fill="#89a1d1" d="M 811.5,214.5 C 811.833,214.5 812.167,214.5 812.5,214.5C 801.5,215.167 790.5,215.833 779.5,216.5C 778.51,222.31 778.177,228.31 778.5,234.5C 777.174,228.099 777.174,221.599 778.5,215C 789.495,214.5 800.495,214.333 811.5,214.5 Z"/></g>
<g><path style="opacity:1" fill="#94a8d2" d="M 249.5,213.5 C 251.262,214.262 252.262,215.596 252.5,217.5C 250.738,216.738 249.738,215.404 249.5,213.5 Z"/></g>
<g><path style="opacity:1" fill="#94a9d4" d="M 343.5,217.5 C 332.679,218.495 321.679,218.828 310.5,218.5C 310.827,227.682 310.493,236.682 309.5,245.5C 309.5,236.5 309.5,227.5 309.5,218.5C 320.654,217.505 331.988,217.172 343.5,217.5 Z"/></g>
<g><path style="opacity:1" fill="#bfcbe2" d="M 740.5,221.5 C 736.486,221.334 732.486,221.501 728.5,222C 726.84,223.488 725.84,225.321 725.5,227.5C 725.167,227.5 724.833,227.5 724.5,227.5C 724.549,224.901 725.549,222.734 727.5,221C 732.02,220.186 736.354,220.353 740.5,221.5 Z"/></g>
<g><path style="opacity:1" fill="#b4c1de" d="M 89.5,218.5 C 89.8333,218.5 90.1667,218.5 90.5,218.5C 90.9926,220.806 91.3259,223.139 91.5,225.5C 90.0762,223.485 89.4095,221.152 89.5,218.5 Z"/></g>
<g><path style="opacity:1" fill="#c0cbe2" d="M 182.5,224.5 C 182.018,228.805 180.018,232.139 176.5,234.5C 178.21,230.939 180.21,227.606 182.5,224.5 Z"/></g>
<g><path style="opacity:1" fill="#94a8d3" d="M 482.5,223.5 C 482.834,226.491 481.834,228.824 479.5,230.5C 479.935,227.843 480.935,225.509 482.5,223.5 Z"/></g>
<g><path style="opacity:1" fill="#8fa4d1" d="M 695.5,222.5 C 695.833,222.5 696.167,222.5 696.5,222.5C 696.993,224.806 697.326,227.139 697.5,229.5C 696.883,229.389 696.383,229.056 696,228.5C 695.505,226.527 695.338,224.527 695.5,222.5 Z"/></g>
<g><path style="opacity:1" fill="#c0cae2" d="M 93.5,229.5 C 95.7451,232.32 97.7451,235.32 99.5,238.5C 95.7445,236.652 93.7445,233.652 93.5,229.5 Z"/></g>
<g><path style="opacity:1" fill="#d2d9e7" d="M 570.5,215.5 C 560.013,216.494 549.346,216.828 538.5,216.5C 538.5,222.167 538.5,227.833 538.5,233.5C 550.345,233.172 562.012,233.505 573.5,234.5C 561.5,234.5 549.5,234.5 537.5,234.5C 537.5,228.167 537.5,221.833 537.5,215.5C 548.5,215.5 559.5,215.5 570.5,215.5 Z"/></g>
<g><path style="opacity:1" fill="#d1d8e7" d="M 779.5,216.5 C 779.5,222.167 779.5,227.833 779.5,233.5C 791.345,233.172 803.012,233.505 814.5,234.5C 802.5,234.5 790.5,234.5 778.5,234.5C 778.177,228.31 778.51,222.31 779.5,216.5 Z"/></g>
<g><path style="opacity:1" fill="#93a7d3" d="M 537.5,234.5 C 549.5,234.5 561.5,234.5 573.5,234.5C 574.117,234.611 574.617,234.944 575,235.5C 575.808,239.027 575.641,242.36 574.5,245.5C 574.81,242.287 574.477,239.287 573.5,236.5C 561.5,235.833 549.5,235.167 537.5,234.5 Z"/></g>
<g><path style="opacity:1" fill="#8ea3d1" d="M 778.5,234.5 C 790.5,234.5 802.5,234.5 814.5,234.5C 815.787,235.871 816.453,237.705 816.5,240C 816.494,242.033 816.161,243.866 815.5,245.5C 815.784,242.223 815.451,239.057 814.5,236C 802.326,235.831 790.326,235.331 778.5,234.5 Z"/></g>
<g><path style="opacity:1" fill="#839bcd" d="M 724.5,227.5 C 724.833,227.5 725.167,227.5 725.5,227.5C 725.291,228.922 724.791,230.255 724,231.5C 718.617,236.49 712.45,237.824 705.5,235.5C 713.96,237.427 720.293,234.76 724.5,227.5 Z"/></g>
<g><path style="opacity:1" fill="#b7c4df" d="M 99.5,238.5 C 101.833,240.167 103.833,242.167 105.5,244.5C 102.5,243.5 100.5,241.5 99.5,238.5 Z"/></g>
<g><path style="opacity:1" fill="#c5cfe4" d="M 495.5,231.5 C 495.007,236.845 492.34,240.512 487.5,242.5C 490.888,239.272 493.554,235.605 495.5,231.5 Z"/></g>
<g><path style="opacity:1" fill="#c3cde3" d="M 638.5,238.5 C 639.377,240.728 640.71,242.728 642.5,244.5C 642.5,244.833 642.5,245.167 642.5,245.5C 639.482,244.145 638.149,241.812 638.5,238.5 Z"/></g>
<g><path style="opacity:1" fill="#b6c3df" d="M 170.5,242.5 C 169.421,244.543 167.754,245.876 165.5,246.5C 166.539,244.469 168.205,243.136 170.5,242.5 Z"/></g>
<g><path style="opacity:1" fill="#b8c4df" d="M 487.5,242.5 C 486.341,244.25 484.674,245.25 482.5,245.5C 483.659,243.75 485.326,242.75 487.5,242.5 Z"/></g>
<g><path style="opacity:1" fill="#b8c4df" d="M 253.5,242.5 C 255.262,243.262 256.262,244.596 256.5,246.5C 254.738,245.738 253.738,244.404 253.5,242.5 Z"/></g>
<g><path style="opacity:1" fill="#cfd7e7" d="M 736.5,237.5 C 734.523,242.475 730.857,245.141 725.5,245.5C 726.167,244.833 726.833,244.167 727.5,243.5C 731.023,242.315 734.023,240.315 736.5,237.5 Z"/></g>
<g><path style="opacity:1" fill="#708cc8" d="M 573.5,236.5 C 574.477,239.287 574.81,242.287 574.5,245.5C 574.5,246.167 574.167,246.5 573.5,246.5C 556.991,246.83 540.658,246.496 524.5,245.5C 540.833,245.5 557.167,245.5 573.5,245.5C 573.5,242.5 573.5,239.5 573.5,236.5 Z"/></g>
<g><path style="opacity:1" fill="#738ec9" d="M 693.5,243.5 C 704.914,246.159 716.247,246.159 727.5,243.5C 726.833,244.167 726.167,244.833 725.5,245.5C 716.246,247.673 706.912,248.006 697.5,246.5C 695.924,245.857 694.59,244.857 693.5,243.5 Z"/></g>
<g><path style="opacity:1" fill="#c4cee4" d="M 523.5,245.5 C 523.833,245.5 524.167,245.5 524.5,245.5C 540.658,246.496 556.991,246.83 573.5,246.5C 565.34,247.166 557.007,247.5 548.5,247.5C 539.806,247.498 531.472,246.831 523.5,245.5 Z"/></g>
<g><path style="opacity:1" fill="#c4cee4" d="M 764.5,245.5 C 781.089,246.485 797.756,246.818 814.5,246.5C 806.34,247.166 798.007,247.5 789.5,247.5C 780.806,247.498 772.472,246.831 764.5,245.5 Z"/></g>
<g><path style="opacity:1" fill="#b6c3de" d="M 456.5,246.5 C 464.167,247.833 471.833,247.833 479.5,246.5C 475.946,247.984 472.112,248.651 468,248.5C 463.888,248.651 460.054,247.984 456.5,246.5 Z"/></g>
<g><path style="opacity:1" fill="#c7d0e4" d="M 725.5,245.5 C 723.974,247.13 721.974,247.963 719.5,248C 712.5,248.667 705.5,248.667 698.5,248C 697.944,247.617 697.611,247.117 697.5,246.5C 706.912,248.006 716.246,247.673 725.5,245.5 Z"/></g>
<g><path style="opacity:1" fill="#b6c3df" d="M 163.5,247.5 C 163.027,248.906 162.027,249.573 160.5,249.5C 160.973,248.094 161.973,247.427 163.5,247.5 Z"/></g>
<g><path style="opacity:1" fill="#a7b7d9" d="M 157.5,250.5 C 155.465,252.195 153.132,253.528 150.5,254.5C 149.5,254.5 148.5,254.5 147.5,254.5C 147.5,254.167 147.5,253.833 147.5,253.5C 150.833,252.5 154.167,251.5 157.5,250.5 Z"/></g>
<g><path style="opacity:1" fill="#728ec9" d="M 124.5,253.5 C 132.167,253.5 139.833,253.5 147.5,253.5C 147.5,253.833 147.5,254.167 147.5,254.5C 143.516,254.928 139.516,255.261 135.5,255.5C 131.553,255.637 127.886,254.97 124.5,253.5 Z"/></g>
<g><path style="opacity:1" fill="#c9d2e5" d="M 122.5,253.5 C 123.167,253.5 123.833,253.5 124.5,253.5C 127.886,254.97 131.553,255.637 135.5,255.5C 139.516,255.261 143.516,254.928 147.5,254.5C 148.5,254.5 149.5,254.5 150.5,254.5C 146.091,255.979 141.424,256.646 136.5,256.5C 133.5,256.333 130.5,256.167 127.5,256C 125.347,255.901 123.681,255.067 122.5,253.5 Z"/></g>
</svg>
