<?xml version="1.0" encoding="UTF-8"?>
<!DOCTYPE svg PUBLIC "-//W3C//DTD SVG 1.1//EN" "http://www.w3.org/Graphics/SVG/1.1/DTD/svg11.dtd">
<svg xmlns="http://www.w3.org/2000/svg" version="1.1" width="200px" height="200px" style="shape-rendering:geometricPrecision; text-rendering:geometricPrecision; image-rendering:optimizeQuality; fill-rule:evenodd; clip-rule:evenodd" xmlns:xlink="http://www.w3.org/1999/xlink">
<g><path style="opacity:1" fill="#fcfdfc" d="M -0.5,-0.5 C 66.1667,-0.5 132.833,-0.5 199.5,-0.5C 199.5,66.1667 199.5,132.833 199.5,199.5C 132.833,199.5 66.1667,199.5 -0.5,199.5C -0.5,132.833 -0.5,66.1667 -0.5,-0.5 Z"/></g>
<g><path style="opacity:1" fill="#bbce8a" d="M 140.5,29.5 C 141.931,30.7804 142.598,32.4471 142.5,34.5C 142.005,36.4817 141.505,38.4817 141,40.5C 140.501,36.8484 140.335,33.1817 140.5,29.5 Z"/></g>
<g><path style="opacity:1" fill="#a9cf4a" d="M 142.5,34.5 C 142.598,32.4471 141.931,30.7804 140.5,29.5C 139.802,27.3331 138.469,25.4998 136.5,24C 132.406,23.2327 128.406,23.566 124.5,25C 108.824,37.0068 98.3237,52.5068 93,71.5C 92.3333,75.1667 92.3333,78.8333 93,82.5C 94.5588,84.2166 95.3921,86.2166 95.5,88.5C 96.675,88.281 97.675,88.6143 98.5,89.5C 93.0805,90.6143 89.9139,88.281 89,82.5C 88.533,73.5729 89.8663,64.9062 93,56.5C 95.5135,52.8064 97.5135,48.8064 99,44.5C 101.723,41.4432 104.056,38.1099 106,34.5C 107.264,32.393 109.097,31.393 111.5,31.5C 111.238,30.0222 111.571,28.6888 112.5,27.5C 116.833,24 121.167,20.5 125.5,17C 140.794,13.4605 146.46,19.2938 142.5,34.5 Z"/></g>
<g><path style="opacity:1" fill="#cc6060" d="M 49.5,75.5 C 49.1583,74.6618 48.4916,74.3284 47.5,74.5C 51.9485,71.2961 56.9485,69.7961 62.5,70C 57.884,71.312 53.5506,73.1453 49.5,75.5 Z"/></g>
<g><path style="opacity:1" fill="#d72e30" d="M 47.5,74.5 C 48.4916,74.3284 49.1583,74.6618 49.5,75.5C 46.2164,79.0999 45.7164,83.0999 48,87.5C 51.6299,91.0615 55.7965,93.7281 60.5,95.5C 59.3933,97.9689 57.3933,98.9689 54.5,98.5C 48.4171,96.9074 43.5837,93.5741 40,88.5C 38.0786,81.3373 40.5786,76.6706 47.5,74.5 Z"/></g>
<g><path style="opacity:1" fill="#cf3839" d="M 105.5,101.5 C 108.403,99.755 108.07,98.755 104.5,98.5C 91.4205,101.115 78.2539,101.115 65,98.5C 63.8333,98.8333 62.6667,99.1667 61.5,99.5C 64.447,100.08 67.1137,101.08 69.5,102.5C 64.0214,102.325 59.0214,100.991 54.5,98.5C 57.3933,98.9689 59.3933,97.9689 60.5,95.5C 63.5,96.1667 66.5,96.8333 69.5,97.5C 74.4127,99.0075 79.5793,99.6742 85,99.5C 88.6833,99.4986 92.1833,99.1652 95.5,98.5C 105.418,98.5866 113.918,95.2533 121,88.5C 121.333,86.1667 121.667,83.8333 122,81.5C 125.571,86.9885 124.738,91.8218 119.5,96C 115.137,98.6844 110.47,100.518 105.5,101.5 Z"/></g>
<g><path style="opacity:1" fill="#f6c2c6" d="M 69.5,97.5 C 78.1549,98.0825 86.8215,98.4159 95.5,98.5C 92.1833,99.1652 88.6833,99.4986 85,99.5C 79.5793,99.6742 74.4127,99.0075 69.5,97.5 Z"/></g>
<g><path style="opacity:1" fill="#df2827" d="M 105.5,101.5 C 102.848,101.41 100.515,102.076 98.5,103.5C 88.6522,103.827 78.9856,103.494 69.5,102.5C 67.1137,101.08 64.447,100.08 61.5,99.5C 62.6667,99.1667 63.8333,98.8333 65,98.5C 78.2539,101.115 91.4205,101.115 104.5,98.5C 108.07,98.755 108.403,99.755 105.5,101.5 Z"/></g>
<g><path style="opacity:1" fill="#eea4a8" d="M 105.5,101.5 C 103.485,102.924 101.152,103.59 98.5,103.5C 100.515,102.076 102.848,101.41 105.5,101.5 Z"/></g>
<g><path style="opacity:1" fill="#2999d4" d="M 110.5,59.5 C 118.937,58.8008 125.77,61.8008 131,68.5C 144.041,84.1042 151.541,102.104 153.5,122.5C 153.944,129.031 151.611,134.197 146.5,138C 143.072,138.701 139.738,138.368 136.5,137C 131.139,133.318 126.973,128.818 124,123.5C 126.921,127.092 130.421,129.925 134.5,132C 140.659,133.839 144.492,131.672 146,125.5C 147.211,101.798 139.044,81.9652 121.5,66C 117.782,63.7016 113.782,63.0349 109.5,64C 107.951,65.214 106.785,66.714 106,68.5C 105.333,67.5 105.333,66.5 106,65.5C 107.332,63.34 108.832,61.34 110.5,59.5 Z"/></g>
<g><path style="opacity:1" fill="#a1a1a1" d="M 20.5,156.5 C 23.2869,155.523 26.2869,155.19 29.5,155.5C 29.5,157.5 29.5,159.5 29.5,161.5C 27.8212,161.715 26.8212,161.048 26.5,159.5C 27.1174,159.611 27.6174,159.944 28,160.5C 28.6667,159.167 28.6667,157.833 28,156.5C 25.7116,156.737 23.2116,156.737 20.5,156.5 Z"/></g>
<g><path style="opacity:1" fill="#949494" d="M 94.5,157.5 C 95.9665,160.258 96.6332,159.925 96.5,156.5C 92.1667,156.5 87.8333,156.5 83.5,156.5C 83.2627,157.791 83.596,158.791 84.5,159.5C 84.44,160.043 84.1067,160.376 83.5,160.5C 82.5481,158.955 82.2148,157.288 82.5,155.5C 87.5,155.5 92.5,155.5 97.5,155.5C 97.5,157.167 97.5,158.833 97.5,160.5C 96.5,160.5 95.5,160.5 94.5,160.5C 94.5,159.5 94.5,158.5 94.5,157.5 Z"/></g>
<g><path style="opacity:1" fill="#8c8c8c" d="M 179.5,159.5 C 180.404,158.791 180.737,157.791 180.5,156.5C 176.629,156.185 172.962,156.518 169.5,157.5C 168.957,157.44 168.624,157.107 168.5,156.5C 172.783,155.508 177.116,155.174 181.5,155.5C 181.785,157.288 181.452,158.955 180.5,160.5C 179.893,160.376 179.56,160.043 179.5,159.5 Z"/></g>
<g><path style="opacity:1" fill="#5c5c5c" d="M 48.5,157.5 C 47.8373,159.473 47.5039,161.639 47.5,164C 47.6311,166.777 48.2977,169.277 49.5,171.5C 47.8008,171.66 46.1341,171.494 44.5,171C 45.733,169.302 46.3996,167.302 46.5,165C 46.3333,163.167 46.1667,161.333 46,159.5C 44.5906,163.316 42.924,166.983 41,170.5C 38.9535,167.036 37.2868,163.37 36,159.5C 35.8333,161.333 35.6667,163.167 35.5,165C 35.6004,167.302 36.267,169.302 37.5,171C 35.8333,171.667 34.1667,171.667 32.5,171C 34.0904,166.014 33.7571,161.181 31.5,156.5C 33.1667,155.167 34.8333,155.167 36.5,156.5C 37.903,159.875 39.403,163.209 41,166.5C 42.597,163.209 44.097,159.875 45.5,156.5C 47.1667,155.167 48.8333,155.167 50.5,156.5C 50.0431,157.298 49.3764,157.631 48.5,157.5 Z"/></g>
<g><path style="opacity:1" fill="#5e5e5e" d="M 112.5,155.5 C 115.518,155.335 118.518,155.502 121.5,156C 126.438,158.605 126.771,161.771 122.5,165.5C 123.234,167.815 124.568,169.648 126.5,171C 125.5,171.667 124.5,171.667 123.5,171C 122.5,169.333 121.5,167.667 120.5,166C 119.207,165.51 117.873,165.343 116.5,165.5C 116.5,167.167 116.5,168.833 116.5,170.5C 119.263,171.455 118.263,171.622 113.5,171C 114.989,165.693 114.656,160.526 112.5,155.5 Z"/></g>
<g><path style="opacity:1" fill="#7f7f7f" d="M 145.5,156.5 C 145.5,156.833 145.5,157.167 145.5,157.5C 143.833,157.5 142.167,157.5 140.5,157.5C 140.5,161.5 140.5,165.5 140.5,169.5C 141.833,169.5 143.167,169.5 144.5,169.5C 143.081,170.451 141.415,170.784 139.5,170.5C 139.666,166.154 139.499,161.821 139,157.5C 139.108,162.28 138.275,166.614 136.5,170.5C 138.138,165.674 137.805,161.007 135.5,156.5C 138.874,155.249 142.207,155.249 145.5,156.5 Z"/></g>
<g><path style="opacity:1" fill="#5b5b5b" d="M 68.5,155.5 C 72.4565,155.008 76.1232,155.675 79.5,157.5C 81.2143,160.77 80.5477,163.27 77.5,165C 78.5853,167.172 79.9186,169.172 81.5,171C 80.365,171.749 79.365,171.583 78.5,170.5C 77.9397,167.004 75.9397,165.337 72.5,165.5C 72.1412,167.766 72.8078,169.599 74.5,171C 72.5,171.667 70.5,171.667 68.5,171C 69.7522,168.959 70.4188,166.625 70.5,164C 70.2729,160.984 69.6062,158.15 68.5,155.5 Z"/></g>
<g><path style="opacity:1" fill="#f8f8f8" d="M 72.5,157.5 C 77.6673,156.492 79.334,158.325 77.5,163C 75.8659,163.494 74.1992,163.66 72.5,163.5C 72.5,161.5 72.5,159.5 72.5,157.5 Z"/></g>
<g><path style="opacity:1" fill="#efefef" d="M 116.5,157.5 C 121.479,156.65 123.479,158.483 122.5,163C 120.527,163.495 118.527,163.662 116.5,163.5C 116.5,161.5 116.5,159.5 116.5,157.5 Z"/></g>
<g><path style="opacity:1" fill="#5a5a5a" d="M 128.5,155.5 C 130.604,155.201 132.604,155.534 134.5,156.5C 133.295,158.793 132.628,161.293 132.5,164C 132.581,166.625 133.248,168.959 134.5,171C 132.5,171.667 130.5,171.667 128.5,171C 129.752,168.959 130.419,166.625 130.5,164C 130.273,160.984 129.606,158.15 128.5,155.5 Z"/></g>
<g><path style="opacity:1" fill="#999999" d="M 48.5,157.5 C 48.5,161.5 48.5,165.5 48.5,169.5C 49.8333,169.5 51.1667,169.5 52.5,169.5C 52.1667,170.167 51.8333,170.833 51.5,171.5C 50.8333,171.5 50.1667,171.5 49.5,171.5C 48.2977,169.277 47.6311,166.777 47.5,164C 47.5039,161.639 47.8373,159.473 48.5,157.5 Z"/></g>
<g><path style="opacity:1" fill="#515151" d="M 145.5,156.5 C 150.578,159.248 151.745,163.248 149,168.5C 145.128,171.538 140.961,172.205 136.5,170.5C 138.275,166.614 139.108,162.28 139,157.5C 139.499,161.821 139.666,166.154 139.5,170.5C 141.415,170.784 143.081,170.451 144.5,169.5C 147.287,168.622 148.62,166.622 148.5,163.5C 148.372,161.045 147.372,159.045 145.5,157.5C 145.5,157.167 145.5,156.833 145.5,156.5 Z"/></g>
<g><path style="opacity:1" fill="#f4f4f4" d="M 145.5,157.5 C 147.372,159.045 148.372,161.045 148.5,163.5C 148.62,166.622 147.287,168.622 144.5,169.5C 143.167,169.5 141.833,169.5 140.5,169.5C 140.5,165.5 140.5,161.5 140.5,157.5C 142.167,157.5 143.833,157.5 145.5,157.5 Z"/></g>
<g><path style="opacity:1" fill="#555555" d="M 169.5,157.5 C 172.962,156.518 176.629,156.185 180.5,156.5C 180.737,157.791 180.404,158.791 179.5,159.5C 177.721,157.656 175.388,156.99 172.5,157.5C 172.5,159.5 172.5,161.5 172.5,163.5C 180.5,163.833 180.5,164.167 172.5,164.5C 172.5,166.5 172.5,168.5 172.5,170.5C 174.833,170.5 177.167,170.5 179.5,170.5C 179.281,169.325 179.614,168.325 180.5,167.5C 181.429,168.689 181.762,170.022 181.5,171.5C 177.116,171.826 172.783,171.492 168.5,170.5C 169.694,168.377 170.36,166.043 170.5,163.5C 170.495,161.304 170.162,159.304 169.5,157.5 Z"/></g>
<g><path style="opacity:1" fill="#5c5c5c" d="M 20.5,156.5 C 23.2116,156.737 25.7116,156.737 28,156.5C 28.6667,157.833 28.6667,159.167 28,160.5C 27.6174,159.944 27.1174,159.611 26.5,159.5C 26.0377,158.12 25.0377,157.453 23.5,157.5C 20.6038,158.024 19.9372,159.524 21.5,162C 24.3078,162.598 26.8078,163.765 29,165.5C 29.8249,167.701 29.3249,169.534 27.5,171C 24.3331,171.252 21.3331,171.418 18.5,171.5C 17.1667,169.833 17.1667,168.167 18.5,166.5C 20.7812,169.228 23.7812,170.228 27.5,169.5C 27.67,168.178 27.3366,167.011 26.5,166C 23.344,165.063 20.5106,163.563 18,161.5C 17.253,159.072 18.0863,157.406 20.5,156.5 Z"/></g>
<g><path style="opacity:1" fill="#5d5d5d" d="M 51.5,171.5 C 51.8333,170.833 52.1667,170.167 52.5,169.5C 54.3377,166.019 56.0044,162.353 57.5,158.5C 55.8333,156.833 56.1667,155.833 58.5,155.5C 59.1667,155.833 59.8333,156.167 60.5,156.5C 62.1794,161.737 64.5128,166.57 67.5,171C 65.8333,171.667 64.1667,171.667 62.5,171C 63.8333,169.667 63.8333,168.333 62.5,167C 60.1902,166.503 57.8568,166.337 55.5,166.5C 55.4208,167.93 55.7542,169.264 56.5,170.5C 54.9547,171.452 53.288,171.785 51.5,171.5 Z"/></g>
<g><path style="opacity:1" fill="#eaeaea" d="M 58.5,158.5 C 60.0428,159.736 61.0428,161.402 61.5,163.5C 60.3112,164.429 58.9778,164.762 57.5,164.5C 57.8333,162.5 58.1667,160.5 58.5,158.5 Z"/></g>
<g><path style="opacity:1" fill="#565656" d="M 94.5,157.5 C 93.1667,157.5 91.8333,157.5 90.5,157.5C 89.9347,162.322 90.6013,166.822 92.5,171C 90.8333,171.667 89.1667,171.667 87.5,171C 88.4667,166.599 88.8,162.099 88.5,157.5C 86.5168,157.157 85.1834,157.824 84.5,159.5C 83.596,158.791 83.2627,157.791 83.5,156.5C 87.8333,156.5 92.1667,156.5 96.5,156.5C 96.6332,159.925 95.9665,160.258 94.5,157.5 Z"/></g>
<g><path style="opacity:1" fill="#565656" d="M 98.5,155.5 C 101.85,155.335 105.183,155.502 108.5,156C 110.706,158.209 111.04,160.709 109.5,163.5C 112.1,166.041 112.1,168.541 109.5,171C 105.833,171.667 102.167,171.667 98.5,171C 99.7522,168.959 100.419,166.625 100.5,164C 100.273,160.984 99.6062,158.15 98.5,155.5 Z"/></g>
<g><path style="opacity:1" fill="#ebebeb" d="M 102.5,164.5 C 104.527,164.338 106.527,164.505 108.5,165C 109.991,167.022 109.658,168.688 107.5,170C 105.866,170.494 104.199,170.66 102.5,170.5C 102.5,168.5 102.5,166.5 102.5,164.5 Z"/></g>
<g><path style="opacity:1" fill="#f3f3f3" d="M 102.5,157.5 C 106.938,156.425 108.938,158.092 108.5,162.5C 106.5,162.5 104.5,162.5 102.5,162.5C 102.5,160.833 102.5,159.167 102.5,157.5 Z"/></g>
<g><path style="opacity:1" fill="#585858" d="M 157.5,155.5 C 159.936,155.317 162.103,155.984 164,157.5C 165.232,154.77 166.065,154.937 166.5,158C 165.623,160.967 164.29,160.967 162.5,158C 155.676,157.506 153.176,160.672 155,167.5C 157.497,169.478 160.331,169.978 163.5,169C 163.957,168.586 164.291,168.086 164.5,167.5C 159.637,165.325 160.303,164.325 166.5,164.5C 166.808,166.924 166.474,169.257 165.5,171.5C 161.87,171.951 158.204,171.451 154.5,170C 151.084,164.081 152.084,159.247 157.5,155.5 Z"/></g>
<g><path style="opacity:1" fill="#afddec" d="M 165.5,175.5 C 169.091,175.312 172.424,176.145 175.5,178C 176.337,179.011 176.67,180.178 176.5,181.5C 173.15,181.665 169.817,181.498 166.5,181C 165.594,179.301 165.261,177.467 165.5,175.5 Z"/></g>
<g><path style="opacity:1" fill="#99d0e5" d="M 121.5,175.5 C 124.921,175.974 128.255,175.974 131.5,175.5C 132.609,178.911 134.275,178.911 136.5,175.5C 137.251,176.376 137.751,177.376 138,178.5C 140.908,177.964 143.741,177.798 146.5,178C 146.833,178.333 147.167,178.667 147.5,179C 144.456,179.359 144.122,180.026 146.5,181C 145.216,181.684 144.049,181.517 143,180.5C 142.667,181.167 142.333,181.833 142,182.5C 140.667,181.833 139.333,181.167 138,180.5C 135.768,181.187 133.602,181.521 131.5,181.5C 129.998,177.626 129.331,177.959 129.5,182.5C 126.873,181.908 124.206,181.575 121.5,181.5C 121.5,179.5 121.5,177.5 121.5,175.5 Z"/></g>
<g><path style="opacity:1" fill="#a4d8e8" d="M 99.5,176.5 C 100.209,175.596 101.209,175.263 102.5,175.5C 102.238,176.978 102.571,178.311 103.5,179.5C 105.611,178.051 107.944,177.051 110.5,176.5C 111.244,177.991 111.91,179.491 112.5,181C 112.167,181.167 111.833,181.333 111.5,181.5C 107.67,181.491 103.67,181.325 99.5,181C 100.801,179.384 100.801,177.884 99.5,176.5 Z"/></g>
<g><path style="opacity:1" fill="#82bed5" d="M 177.5,177.5 C 178.833,177.5 180.167,177.5 181.5,177.5C 181.5,178.833 181.5,180.167 181.5,181.5C 179.876,181.36 178.71,182.027 178,183.5C 177.505,181.527 177.338,179.527 177.5,177.5 Z"/></g>
<g><path style="opacity:1" fill="#90c2da" d="M 153.5,175.5 C 156.188,176.024 157.688,177.691 158,180.5C 158.483,179.552 158.649,178.552 158.5,177.5C 162.971,177.672 163.304,178.506 159.5,180C 160.5,180.333 161.5,180.667 162.5,181C 160.527,181.495 158.527,181.662 156.5,181.5C 156.404,177.689 155.738,177.689 154.5,181.5C 153.534,179.604 153.201,177.604 153.5,175.5 Z"/></g>
</svg>
